# xmcd
#
# Track frame offsets: 
#        150
#        24857
#        45257
#        64632
#        86722
#        104707
#        119342
#        132160
#        149060
#        168032
#        184587
#        204355
#        220562
#        239772
#        272735
#
# Disc length: 3872 seconds
#
# Revision: 3
# Processed by: cddbd v1.5.2PL0 Copyright (c) Steve Scherf et al.
# Submitted via: ExactAudioCopy v1.1
#
DISCID=d20f1e0f
DTITLE=Various Artist - Mojo Mamas
DYEAR=2000
DGENRE=Blues
TTITLE0=Grana Louise - Good Woman Go Bad
TTITLE1=Grana Louise - Somebody Done Told Me
TTITLE2=Shirley Johnson - Paycheck In My Pocket
TTITLE3=Shirley Johnson - Prisoner Of Love
TTITLE4=Big Time Sarah - Gonna Have A Murder On Your Hands
TTITLE5=Big Time Sarah - Love Fever
TTITLE6=Zora Young - Daughter Of A Son Of A Gun
TTITLE7=Gloria Shannon - One Eyed Man
TTITLE8=Gloria Shannon - Baby, Won't You Please Come Home
TTITLE9=Maggie Burrell - Pride And Joy
TTITLE10=Mary Lane - I Wonder Why
TTITLE11=Mary Lane - Coming Home
TTITLE12=Pat Scott - Today I Sing The Blues
TTITLE13=Pat Scott - Let's Do It Again
TTITLE14=data
EXTD=Year: 2000   (Blue Chicago Records)
EXTT0=
EXTT1=
EXTT2=
EXTT3=
EXTT4=
EXTT5=
EXTT6=
EXTT7=
EXTT8=
EXTT9=
EXTT10=
EXTT11=
EXTT12=
EXTT13=
EXTT14=
PLAYORDER=
